<svg xmlns="http://www.w3.org/2000/svg" viewBox="0 0 562.3 70.5" focusable="false">
    <g>
        <path d="M532.2,41.1l30-40.7v68.4h-10.2V32l-19.9,26.5L512.4,32v36.8h-10.2V0.3L532.2,41.1z M299.1,51c-0.2-3.5-1.8-10.5-10.9-17.8
    l-8-7c-3.4-2.7-5-5.6-5.1-9c0-3.9,2.6-6.6,6.5-6.8c0.1,0,5-0.6,8,3.6l0.1,0.2l8.1-5.5l-0.1-0.2c-1.4-2.2-7.7-8.2-16.2-7.8
    c-4.8,0.2-9.1,2.1-12.1,5.1c-3.1,3.2-4.6,7.4-4.3,12.3c0.3,5.7,3.6,11,10.5,16.6l7.5,6.6c4.2,3.4,6,6.3,6.2,9.7
    c0.2,2.5-0.7,4.9-2.3,6.7c-1.4,1.6-3,2.3-5.2,2.5l-0.5,0c-6.3,0-8.9-4.5-10.4-7.2l-0.4-0.7l-8.7,4.2c0.8,2.2,5.5,13.3,19.3,13.3
    l0.2,0c5-0.3,9.6-2.3,12.9-5.7C297.6,60.7,299.4,56,299.1,51z M98.9,0C79.5,0,63.7,15.8,63.7,35.2c0,19.4,15.8,35.2,35.2,35.2
    c19.4,0,35.2-15.8,35.2-35.2C134.2,15.8,118.4,0,98.9,0z M98.9,60.3c-13.8,0-25-11.2-25-25c0-13.8,11.2-25,25-25s25,11.2,25,25
    C124,49,112.7,60.3,98.9,60.3z M453.8,0c-19.4,0-35.2,15.8-35.2,35.2c0,19.4,15.8,35.2,35.2,35.2c19.4,0,35.2-15.8,35.2-35.2
    C489,15.8,473.2,0,453.8,0z M453.8,60.3c-13.8,0-25-11.2-25-25c0-13.8,11.2-25,25-25c13.8,0,25,11.2,25,25
    C478.8,49,467.6,60.3,453.8,60.3z M50.3,70.5V1.7H40.1v42.7L0,0.3l0,68.4h10.2v-42l0.4,0.4L50.3,70.5z M350.6,1.7h-42.8v9.4h16.1
    v57.6h10.6V11.1h16.1V1.7z M395.3,43.5l0.2-0.1c1.1-0.5,2.2-1.2,3.1-1.9c5.5-4.1,8.8-10.8,8.8-18.1c0-12-8.9-21.8-19.8-21.8H364v67
    h10.2l0-23.5h0.2c0,0,5.5,0,9.6,0h0.1l0.1,0.1l15.5,23.4H412L395.3,43.5z M386.5,35h-12.2V11.7l12.2,0c5.9,0,10.6,5.2,10.6,11.6
    C397.1,29.8,392.4,35,386.5,35z M224.7,1.7h-16.6v67h16.6c16.2,0,29-15,29-33.5C253.7,16.8,240.8,1.7,224.7,1.7z M224.4,59.1h-6.2
    V11.4h6.2c11,0,19.3,10.7,19.3,23.9C243.7,48.4,235.4,59.1,224.4,59.1z M178.7,43.5l0.2-0.1c1.1-0.5,2.2-1.2,3.1-1.9
    c5.5-4.1,8.8-10.8,8.8-18.1c0-12-8.9-21.8-19.8-21.8h-23.6v67h10.2l0-23.5h0.2c0,0,5.5,0,9.6,0h0.1l0.1,0.1l15.5,23.4h12.2
    L178.7,43.5z M169.9,35h-12.2V11.7l12.2,0c5.9,0,10.6,5.2,10.6,11.6C180.5,29.8,175.8,35,169.9,35z"/>
    </g>
</svg>